<mxfile host="app.diagrams.net" modified="2021-11-29T13:24:53.671Z" agent="5.0 (Windows NT 10.0; Win64; x64) AppleWebKit/537.36 (KHTML, like Gecko) Chrome/96.0.4664.45 Safari/537.36" etag="Hem94BbBWcyptuWciJhe" version="15.8.6" type="github">
  <diagram name="Page-1" id="a7904f86-f2b4-8e86-fa97-74104820619b">
    <mxGraphModel dx="3342" dy="1314" grid="1" gridSize="10" guides="1" tooltips="1" connect="1" arrows="1" fold="1" page="1" pageScale="1" pageWidth="1100" pageHeight="850" background="none" math="0" shadow="0">
      <root>
        <mxCell id="0" />
        <mxCell id="1" parent="0" />
        <mxCell id="I8nJYcev8onAMSlmReDd-2" style="edgeStyle=orthogonalEdgeStyle;rounded=0;orthogonalLoop=1;jettySize=auto;html=1;exitX=1;exitY=0.5;exitDx=0;exitDy=0;entryX=0;entryY=0.5;entryDx=0;entryDy=0;endArrow=ERmany;endFill=0;" edge="1" parent="1" source="24794b860abc3c2d-17" target="24794b860abc3c2d-21">
          <mxGeometry relative="1" as="geometry" />
        </mxCell>
        <mxCell id="I8nJYcev8onAMSlmReDd-16" style="edgeStyle=orthogonalEdgeStyle;rounded=0;orthogonalLoop=1;jettySize=auto;html=1;endArrow=none;endFill=0;" edge="1" parent="1" source="24794b860abc3c2d-17" target="24794b860abc3c2d-26">
          <mxGeometry relative="1" as="geometry">
            <mxPoint x="920" y="20" as="targetPoint" />
            <Array as="points">
              <mxPoint x="310" y="28" />
              <mxPoint x="910" y="28" />
            </Array>
          </mxGeometry>
        </mxCell>
        <mxCell id="24794b860abc3c2d-17" value="&lt;p style=&quot;margin: 0px ; margin-top: 4px ; text-align: center ; text-decoration: underline&quot;&gt;&lt;b&gt;Provider&lt;/b&gt;&lt;/p&gt;&lt;hr&gt;&lt;p style=&quot;margin: 0px ; margin-left: 8px&quot;&gt;&lt;br&gt;&lt;/p&gt;" style="verticalAlign=top;align=left;overflow=fill;fontSize=12;fontFamily=Helvetica;html=1;rounded=0;shadow=0;comic=0;labelBackgroundColor=none;strokeWidth=1" parent="1" vertex="1">
          <mxGeometry x="230" y="415" width="140" height="45" as="geometry" />
        </mxCell>
        <mxCell id="I8nJYcev8onAMSlmReDd-1" style="edgeStyle=orthogonalEdgeStyle;rounded=0;orthogonalLoop=1;jettySize=auto;html=1;entryX=0.5;entryY=1;entryDx=0;entryDy=0;endArrow=none;endFill=0;startArrow=ERmany;startFill=0;" edge="1" parent="1" source="24794b860abc3c2d-18" target="24794b860abc3c2d-17">
          <mxGeometry relative="1" as="geometry" />
        </mxCell>
        <mxCell id="24794b860abc3c2d-18" value="&lt;p style=&quot;margin: 0px ; margin-top: 4px ; text-align: center ; text-decoration: underline&quot;&gt;&lt;b&gt;Provider_documents&lt;/b&gt;&lt;/p&gt;&lt;hr&gt;&lt;p style=&quot;margin: 0px ; margin-left: 8px&quot;&gt;&lt;br&gt;&lt;/p&gt;" style="verticalAlign=top;align=left;overflow=fill;fontSize=12;fontFamily=Helvetica;html=1;rounded=0;shadow=0;comic=0;labelBackgroundColor=none;strokeWidth=1" parent="1" vertex="1">
          <mxGeometry x="230" y="610" width="140" height="40" as="geometry" />
        </mxCell>
        <mxCell id="I8nJYcev8onAMSlmReDd-4" style="edgeStyle=orthogonalEdgeStyle;rounded=0;orthogonalLoop=1;jettySize=auto;html=1;exitX=1;exitY=0.75;exitDx=0;exitDy=0;entryX=0;entryY=0.5;entryDx=0;entryDy=0;endArrow=ERmany;endFill=0;" edge="1" parent="1" source="24794b860abc3c2d-21" target="24794b860abc3c2d-27">
          <mxGeometry relative="1" as="geometry" />
        </mxCell>
        <mxCell id="I8nJYcev8onAMSlmReDd-10" style="rounded=0;orthogonalLoop=1;jettySize=auto;html=1;entryX=0.5;entryY=1;entryDx=0;entryDy=0;endArrow=ERmany;endFill=0;" edge="1" parent="1" source="24794b860abc3c2d-21" target="24794b860abc3c2d-23">
          <mxGeometry relative="1" as="geometry" />
        </mxCell>
        <mxCell id="I8nJYcev8onAMSlmReDd-19" style="edgeStyle=none;rounded=0;orthogonalLoop=1;jettySize=auto;html=1;exitX=1;exitY=0.25;exitDx=0;exitDy=0;entryX=0;entryY=0.5;entryDx=0;entryDy=0;startArrow=ERmany;startFill=0;endArrow=none;endFill=0;" edge="1" parent="1" source="24794b860abc3c2d-21" target="I8nJYcev8onAMSlmReDd-7">
          <mxGeometry relative="1" as="geometry" />
        </mxCell>
        <mxCell id="24794b860abc3c2d-21" value="&lt;p style=&quot;margin: 0px ; margin-top: 4px ; text-align: center ; text-decoration: underline&quot;&gt;&lt;b&gt;Invoice&lt;/b&gt;&lt;/p&gt;&lt;hr&gt;&lt;p style=&quot;margin: 0px ; margin-left: 8px&quot;&gt;&lt;br&gt;&lt;/p&gt;" style="verticalAlign=top;align=left;overflow=fill;fontSize=12;fontFamily=Helvetica;html=1;rounded=0;shadow=0;comic=0;labelBackgroundColor=none;strokeWidth=1" parent="1" vertex="1">
          <mxGeometry x="480" y="420" width="140" height="35" as="geometry" />
        </mxCell>
        <mxCell id="I8nJYcev8onAMSlmReDd-3" style="edgeStyle=orthogonalEdgeStyle;rounded=0;orthogonalLoop=1;jettySize=auto;html=1;exitX=0.5;exitY=0;exitDx=0;exitDy=0;entryX=0.5;entryY=1;entryDx=0;entryDy=0;endArrow=none;endFill=0;startArrow=ERmany;startFill=0;" edge="1" parent="1" source="24794b860abc3c2d-22" target="24794b860abc3c2d-21">
          <mxGeometry relative="1" as="geometry" />
        </mxCell>
        <mxCell id="24794b860abc3c2d-22" value="&lt;p style=&quot;margin: 0px ; margin-top: 4px ; text-align: center ; text-decoration: underline&quot;&gt;&lt;b&gt;Invoice_document&lt;/b&gt;&lt;/p&gt;&lt;hr&gt;&lt;p style=&quot;margin: 0px ; margin-left: 8px&quot;&gt;&lt;br&gt;&lt;/p&gt;" style="verticalAlign=top;align=left;overflow=fill;fontSize=12;fontFamily=Helvetica;html=1;rounded=0;shadow=0;comic=0;labelBackgroundColor=none;strokeWidth=1" parent="1" vertex="1">
          <mxGeometry x="480" y="550" width="140" height="40" as="geometry" />
        </mxCell>
        <mxCell id="I8nJYcev8onAMSlmReDd-15" style="edgeStyle=orthogonalEdgeStyle;rounded=0;orthogonalLoop=1;jettySize=auto;html=1;entryX=0.5;entryY=1;entryDx=0;entryDy=0;endArrow=none;endFill=0;startArrow=ERmany;startFill=0;" edge="1" parent="1" source="24794b860abc3c2d-23" target="I8nJYcev8onAMSlmReDd-11">
          <mxGeometry relative="1" as="geometry" />
        </mxCell>
        <mxCell id="24794b860abc3c2d-23" value="&lt;p style=&quot;margin: 0px ; margin-top: 4px ; text-align: center ; text-decoration: underline&quot;&gt;&lt;b&gt;Invoice_user&lt;/b&gt;&lt;/p&gt;&lt;hr&gt;&lt;p style=&quot;margin: 0px ; margin-left: 8px&quot;&gt;&lt;br&gt;&lt;/p&gt;" style="verticalAlign=top;align=left;overflow=fill;fontSize=12;fontFamily=Helvetica;html=1;rounded=0;shadow=0;comic=0;labelBackgroundColor=none;strokeWidth=1" parent="1" vertex="1">
          <mxGeometry x="480" y="295" width="140" height="40" as="geometry" />
        </mxCell>
        <mxCell id="24794b860abc3c2d-26" value="&lt;p style=&quot;margin: 0px ; margin-top: 4px ; text-align: center ; text-decoration: underline&quot;&gt;&lt;b&gt;Organization&lt;/b&gt;&lt;/p&gt;&lt;hr&gt;&lt;p style=&quot;margin: 0px ; margin-left: 8px&quot;&gt;&lt;br&gt;&lt;/p&gt;" style="verticalAlign=top;align=left;overflow=fill;fontSize=12;fontFamily=Helvetica;html=1;rounded=0;shadow=0;comic=0;labelBackgroundColor=none;strokeWidth=1" parent="1" vertex="1">
          <mxGeometry x="840" y="80" width="140" height="110" as="geometry" />
        </mxCell>
        <mxCell id="I8nJYcev8onAMSlmReDd-5" style="edgeStyle=orthogonalEdgeStyle;rounded=0;orthogonalLoop=1;jettySize=auto;html=1;exitX=0.5;exitY=1;exitDx=0;exitDy=0;entryX=0.5;entryY=0;entryDx=0;entryDy=0;endArrow=none;endFill=0;startArrow=ERmany;startFill=0;" edge="1" parent="1" source="24794b860abc3c2d-27" target="24794b860abc3c2d-28">
          <mxGeometry relative="1" as="geometry" />
        </mxCell>
        <mxCell id="24794b860abc3c2d-27" value="&lt;p style=&quot;margin: 0px ; margin-top: 4px ; text-align: center ; text-decoration: underline&quot;&gt;&lt;b&gt;Shipper_invoice&lt;/b&gt;&lt;/p&gt;&lt;hr&gt;&lt;p style=&quot;margin: 0px ; margin-left: 8px&quot;&gt;&lt;br&gt;&lt;/p&gt;" style="verticalAlign=top;align=left;overflow=fill;fontSize=12;fontFamily=Helvetica;html=1;rounded=0;shadow=0;comic=0;labelBackgroundColor=none;strokeWidth=1" parent="1" vertex="1">
          <mxGeometry x="770" y="490" width="140" height="35" as="geometry" />
        </mxCell>
        <mxCell id="I8nJYcev8onAMSlmReDd-6" style="edgeStyle=orthogonalEdgeStyle;rounded=0;orthogonalLoop=1;jettySize=auto;html=1;entryX=1;entryY=0.5;entryDx=0;entryDy=0;endArrow=none;endFill=0;" edge="1" parent="1" source="24794b860abc3c2d-28" target="24794b860abc3c2d-26">
          <mxGeometry relative="1" as="geometry">
            <Array as="points">
              <mxPoint x="1060" y="675" />
              <mxPoint x="1060" y="135" />
            </Array>
          </mxGeometry>
        </mxCell>
        <mxCell id="24794b860abc3c2d-28" value="&lt;p style=&quot;margin: 0px ; margin-top: 4px ; text-align: center ; text-decoration: underline&quot;&gt;&lt;b&gt;Shipper&lt;/b&gt;&lt;/p&gt;&lt;hr&gt;&lt;p style=&quot;margin: 0px ; margin-left: 8px&quot;&gt;&lt;br&gt;&lt;/p&gt;" style="verticalAlign=top;align=left;overflow=fill;fontSize=12;fontFamily=Helvetica;html=1;rounded=0;shadow=0;comic=0;labelBackgroundColor=none;strokeWidth=1" parent="1" vertex="1">
          <mxGeometry x="770" y="620" width="140" height="40" as="geometry" />
        </mxCell>
        <mxCell id="I8nJYcev8onAMSlmReDd-8" style="edgeStyle=orthogonalEdgeStyle;rounded=0;orthogonalLoop=1;jettySize=auto;html=1;entryX=0.5;entryY=1;entryDx=0;entryDy=0;endArrow=none;endFill=0;" edge="1" parent="1" source="I8nJYcev8onAMSlmReDd-7" target="24794b860abc3c2d-26">
          <mxGeometry relative="1" as="geometry" />
        </mxCell>
        <mxCell id="I8nJYcev8onAMSlmReDd-7" value="&lt;p style=&quot;margin: 0px ; margin-top: 4px ; text-align: center ; text-decoration: underline&quot;&gt;&lt;b&gt;Client&lt;/b&gt;&lt;/p&gt;&lt;hr&gt;&lt;p style=&quot;margin: 0px ; margin-left: 8px&quot;&gt;&lt;br&gt;&lt;/p&gt;" style="verticalAlign=top;align=left;overflow=fill;fontSize=12;fontFamily=Helvetica;html=1;rounded=0;shadow=0;comic=0;labelBackgroundColor=none;strokeWidth=1" vertex="1" parent="1">
          <mxGeometry x="840" y="408" width="140" height="35" as="geometry" />
        </mxCell>
        <mxCell id="I8nJYcev8onAMSlmReDd-12" style="edgeStyle=orthogonalEdgeStyle;rounded=0;orthogonalLoop=1;jettySize=auto;html=1;entryX=0;entryY=0.5;entryDx=0;entryDy=0;endArrow=ERmany;endFill=0;" edge="1" parent="1" source="I8nJYcev8onAMSlmReDd-11" target="I8nJYcev8onAMSlmReDd-13">
          <mxGeometry relative="1" as="geometry">
            <mxPoint x="670" y="210" as="targetPoint" />
          </mxGeometry>
        </mxCell>
        <mxCell id="I8nJYcev8onAMSlmReDd-11" value="&lt;p style=&quot;margin: 0px ; margin-top: 4px ; text-align: center ; text-decoration: underline&quot;&gt;&lt;b&gt;user&lt;/b&gt;&lt;/p&gt;&lt;hr&gt;&lt;p style=&quot;margin: 0px ; margin-left: 8px&quot;&gt;&lt;br&gt;&lt;/p&gt;" style="verticalAlign=top;align=left;overflow=fill;fontSize=12;fontFamily=Helvetica;html=1;rounded=0;shadow=0;comic=0;labelBackgroundColor=none;strokeWidth=1" vertex="1" parent="1">
          <mxGeometry x="480" y="210" width="140" height="40" as="geometry" />
        </mxCell>
        <mxCell id="I8nJYcev8onAMSlmReDd-14" style="edgeStyle=orthogonalEdgeStyle;rounded=0;orthogonalLoop=1;jettySize=auto;html=1;entryX=0;entryY=0.5;entryDx=0;entryDy=0;endArrow=none;endFill=0;startArrow=ERmany;startFill=0;" edge="1" parent="1" source="I8nJYcev8onAMSlmReDd-13" target="24794b860abc3c2d-26">
          <mxGeometry relative="1" as="geometry" />
        </mxCell>
        <mxCell id="I8nJYcev8onAMSlmReDd-13" value="&lt;p style=&quot;margin: 0px ; margin-top: 4px ; text-align: center ; text-decoration: underline&quot;&gt;&lt;b&gt;organization_user&lt;/b&gt;&lt;/p&gt;&lt;hr&gt;&lt;p style=&quot;margin: 0px ; margin-left: 8px&quot;&gt;&lt;br&gt;&lt;/p&gt;" style="verticalAlign=top;align=left;overflow=fill;fontSize=12;fontFamily=Helvetica;html=1;rounded=0;shadow=0;comic=0;labelBackgroundColor=none;strokeWidth=1" vertex="1" parent="1">
          <mxGeometry x="670" y="210" width="140" height="40" as="geometry" />
        </mxCell>
        <mxCell id="I8nJYcev8onAMSlmReDd-17" value="0..1" style="text;html=1;align=center;verticalAlign=middle;resizable=0;points=[];autosize=1;strokeColor=none;fillColor=none;" vertex="1" parent="1">
          <mxGeometry x="870" y="50" width="40" height="20" as="geometry" />
        </mxCell>
        <mxCell id="I8nJYcev8onAMSlmReDd-18" value="0..1" style="text;html=1;align=center;verticalAlign=middle;resizable=0;points=[];autosize=1;strokeColor=none;fillColor=none;" vertex="1" parent="1">
          <mxGeometry x="910" y="190" width="40" height="20" as="geometry" />
        </mxCell>
        <mxCell id="I8nJYcev8onAMSlmReDd-20" value="0..1" style="text;html=1;align=center;verticalAlign=middle;resizable=0;points=[];autosize=1;strokeColor=none;fillColor=none;" vertex="1" parent="1">
          <mxGeometry x="980" y="110" width="40" height="20" as="geometry" />
        </mxCell>
      </root>
    </mxGraphModel>
  </diagram>
</mxfile>
